<svg width="48" height="48" viewBox="0 0 48 48" fill="none" xmlns="http://www.w3.org/2000/svg">
<g clip-path="url(#clip0_2090_2762)">
<path d="M35.9526 7.82471L35.0488 8.20407C33.6625 8.78426 32.8424 9.54019 32.1367 10.3045C32.7838 10.6057 33.4059 10.9907 33.9972 11.4509C35.3166 12.5248 36.2064 13.6852 36.9038 15.225L37.9526 17.5262L35.4421 17.2166C33.643 16.999 32.4379 17.4007 31.2692 17.7884C30.7922 17.9502 30.304 18.112 29.7936 18.2236C29.8271 18.4356 29.8522 18.6504 29.8689 18.8624C29.9805 20.1343 29.8103 21.4258 29.3696 22.7006C28.781 24.2989 27.9777 25.5151 26.7476 26.6755L25.9191 27.4537L24.9791 26.8177C23.5816 25.8665 22.5914 24.7926 21.7685 23.3338C21.219 22.3073 20.8647 21.2585 20.7141 20.1818C20.1395 20.2822 19.5704 20.3017 19.0126 20.324C17.7852 20.3714 16.5132 20.4189 14.9093 21.2612L12.6695 22.4412L12.834 19.9168C12.9428 18.232 13.364 16.8345 14.2064 15.384C14.7169 14.5416 15.3166 13.8108 16.0084 13.1971C15.8494 13.0576 15.6932 12.9126 15.5397 12.7703C14.636 11.9363 13.7015 11.0716 11.9693 10.5332L9.55091 9.78008L11.0321 8.47743C2.66946 10.9963 0 18.3519 0 26.6085C0 38.1734 10.7448 47.5486 24 47.5486C37.2524 47.5486 48 38.1734 48 26.6085C48 18.0841 44.9233 9.98649 35.9526 7.82471Z" fill="#307A15"/>
<path d="M17.6651 13.6488C16.7864 14.2597 16.0333 15.0574 15.428 16.0588C14.8339 17.0798 14.3541 18.2625 14.2453 19.9696C17.7962 18.1035 20.0082 19.54 22.0807 18.1174C22.0361 18.5637 22.0249 19.0044 22.064 19.448C22.1393 20.5163 22.4461 21.5679 23.0012 22.6C23.5814 23.6293 24.3541 24.6418 25.7739 25.6042C27.018 24.4298 27.6205 23.3057 28.0305 22.1955C28.4154 21.0909 28.5521 20.0058 28.4545 18.9375C28.3959 18.2429 28.2369 17.5568 27.9887 16.8789C30.2341 17.2025 31.8297 15.3085 35.6121 15.7743C34.9036 14.215 34.0361 13.2778 33.1212 12.533C32.2007 11.8106 31.216 11.3336 30.1756 11.0742C29.9608 11.0184 29.7488 10.9793 29.5284 10.9459C30.8394 9.84685 31.6818 8.04211 34.5019 6.86498C33.11 5.86359 31.891 5.47865 30.7279 5.28897C29.5675 5.11882 28.4768 5.19134 27.4447 5.48423C26.4127 5.76875 25.4364 6.26805 24.527 7.00724C24.1784 7.30292 23.8408 7.64322 23.5145 8.017C22.262 3.96958 20.7836 0.739457 20.6498 0.452148L19.6818 0.901242C19.7125 0.970977 21.2578 4.33499 22.5354 8.49957C22.4684 8.4382 22.3959 8.37962 22.3234 8.32942C21.3499 7.67949 20.3318 7.27502 19.2746 7.09092C18.223 6.90124 17.124 6.93193 15.9887 7.21087C14.8478 7.51491 13.6735 8.01142 12.3848 9.14113C15.8018 10.2039 16.6107 12.3685 18.4936 13.1495C18.209 13.3029 17.9301 13.4647 17.6651 13.6488ZM24.7669 11.5874C24.7809 11.5874 24.7948 11.5958 24.806 11.5986C24.7558 11.6209 24.7028 11.6488 24.6525 11.6739C24.6888 11.646 24.7279 11.6181 24.7669 11.5874Z" fill="#307A15"/>
</g>
<defs>
<clipPath id="clip0_2090_2762">
<rect width="48" height="48" fill="white"/>
</clipPath>
</defs>
</svg>
